<svg width="290" height="290" viewBox="0 0 290 290" fill="none" xmlns="http://www.w3.org/2000/svg">
<path d="M196 0H60C26.8629 0 0 26.8629 0 60V196C0 229.137 26.8629 256 60 256H196C229.137 256 256 229.137 256 196V60C256 26.8629 229.137 0 196 0Z" fill="#242938"/>
<path d="M146.396 122.39H165.87V104.737H146.396V122.39ZM123.214 122.39H142.687V104.737H123.214V122.39ZM100.494 122.39H119.968V104.737H100.494V122.39ZM77.7747 122.39H96.7847V104.737H77.7747V122.39ZM54.5919 122.39H74.0655V104.737H54.5919V122.39ZM77.7747 101.021H96.7847V83.3688H77.7747V101.021ZM100.494 101.021H119.968V83.3688H100.494V101.021ZM123.214 101.021H142.687V83.3688H123.214V101.021ZM123.214 79.6525H142.687V62H123.214V79.6525ZM228 114.493C228 114.493 219.654 106.596 202.499 109.383C200.644 95.9115 186.271 88.0143 186.271 88.0143C186.271 88.0143 172.825 104.273 182.561 122.39C179.78 123.784 175.143 125.642 168.188 125.642H40.6822C38.3638 134.469 38.3638 193 102.349 193C148.25 193 182.561 171.632 198.79 132.61C222.9 134.469 228 114.493 228 114.493Z" fill="#2396ED"/>
</svg>
