<svg width="300" height="300" viewBox="0 0 300 300" fill="none" xmlns="http://www.w3.org/2000/svg">
<path d="M196 0H60C26.8629 0 0 26.8629 0 60V196C0 229.137 26.8629 256 60 256H196C229.137 256 256 229.137 256 196V60C256 26.8629 229.137 0 196 0Z" fill="#EEF0F5"/>
<path d="M51.1364 194.776H79.4545V126.003L39 95.6625V182.64C39 189.355 44.4411 194.776 51.1364 194.776Z" fill="#4285F4"/>
<path d="M176.545 194.776H204.864C211.579 194.776 217 189.335 217 182.64V95.6625L176.545 126.003" fill="#34A853"/>
<path d="M176.545 73.4122V126.003L217 95.6622V79.4804C217 64.4718 199.868 55.9156 187.873 64.9168" fill="#FBBC04"/>
<path d="M79.4546 126.003V73.4125L128 109.822L176.545 73.4125V126.003L128 162.413" fill="#EA4335"/>
<path d="M39 79.4804V95.6622L79.4545 126.003V73.4122L68.1273 64.9168C56.1123 55.9156 39 64.4718 39 79.4804Z" fill="#C5221F"/>
</svg>
