<svg width="290" height="290" viewBox="0 0 290 290" fill="none" xmlns="http://www.w3.org/2000/svg">
<mask id="mask0_4_116" style="mask-type:luminance" maskUnits="userSpaceOnUse" x="0" y="0" width="256" height="256">
<path d="M256 0H0V256H256V0Z" fill="white"/>
</mask>
<g mask="url(#mask0_4_116)">
<path d="M196 0H60C26.8629 0 0 26.8629 0 60V196C0 229.137 26.8629 256 60 256H196C229.137 256 256 229.137 256 196V60C256 26.8629 229.137 0 196 0Z" fill="#242938"/>
<path d="M229.942 143.204C228.974 144.638 227.832 145.948 226.542 147.102C225.145 148.356 223.591 149.422 221.917 150.273C220.131 151.185 218.247 151.89 216.3 152.375C214.213 152.894 212.069 153.15 209.918 153.139C206.081 153.175 202.275 152.448 198.722 151C191.945 148.261 186.577 142.879 183.856 136.096C182.4 132.478 181.673 128.608 181.716 124.708C181.673 120.808 182.4 116.938 183.856 113.319C186.577 106.536 191.945 101.154 198.722 98.4165C202.275 96.9679 206.081 96.2404 209.918 96.2763C213.376 96.2949 216.8 96.969 220.007 98.263C223.427 99.632 226.412 101.904 228.643 104.836L223.828 108.429C223.182 107.465 222.41 106.591 221.535 105.83C220.523 104.934 219.407 104.164 218.211 103.537C216.933 102.864 215.588 102.326 214.198 101.932C212.807 101.53 211.366 101.324 209.918 101.321C206.707 101.268 203.525 101.92 200.594 103.231C197.935 104.438 195.554 106.181 193.601 108.352C191.668 110.528 190.175 113.059 189.205 115.804C187.168 121.565 187.168 127.85 189.205 133.611C190.175 136.356 191.668 138.887 193.601 141.063C195.553 143.234 197.934 144.978 200.594 146.184C203.524 147.496 206.707 148.148 209.918 148.095C211.34 148.096 212.76 147.968 214.16 147.713C215.584 147.451 216.97 147.015 218.287 146.414C219.676 145.777 220.963 144.94 222.109 143.929C223.396 142.779 224.514 141.455 225.433 139.994L229.942 143.204Z" fill="#DA4437"/>
<path d="M141.133 97.6514H156.878C162.38 97.6514 166.724 98.849 169.908 101.244C173.092 103.64 174.685 107.257 174.685 112.097C174.685 116.938 173.093 120.569 169.908 122.988C166.724 125.409 162.38 126.619 156.878 126.618H146.636V151.764H141.133V97.6514ZM146.637 121.575H155.503C157.605 121.619 159.702 121.361 161.731 120.81C163.215 120.413 164.605 119.725 165.821 118.785C166.801 117.996 167.563 116.97 168.037 115.805C168.502 114.624 168.735 113.366 168.725 112.097C168.73 110.854 168.497 109.622 168.037 108.467C167.558 107.294 166.797 106.257 165.821 105.448C164.617 104.49 163.223 103.799 161.731 103.422C159.698 102.899 157.602 102.655 155.503 102.697H146.636L146.637 121.575Z" fill="#FAB606"/>
<path d="M100.932 151.764H95.4297V97.6514H112.091C117.594 97.6514 121.937 98.8488 125.122 101.244C128.306 103.639 129.898 107.257 129.899 112.097C129.996 115.61 128.721 119.022 126.345 121.612C123.975 124.185 120.549 125.676 116.065 126.083L131.657 151.764H124.931L110.104 126.618H100.933L100.932 151.764ZM100.932 121.574H110.715C112.818 121.618 114.915 121.361 116.944 120.81C118.428 120.413 119.818 119.724 121.033 118.785C122.013 117.996 122.776 116.97 123.249 115.804C123.714 114.624 123.948 113.365 123.937 112.097C123.943 110.854 123.709 109.621 123.249 108.467C122.771 107.293 122.009 106.256 121.033 105.447C119.83 104.489 118.436 103.798 116.944 103.422C114.91 102.898 112.815 102.654 110.715 102.696H100.932V121.574Z" fill="#4285F4"/>
<path d="M47.3738 158.783C48.898 160.817 50.8788 162.461 53.1554 163.584C55.6176 164.807 58.3345 165.425 61.082 165.388C63.3034 165.447 65.5148 165.068 67.5913 164.275C69.2521 163.62 70.7348 162.581 71.9179 161.241C73.0282 159.936 73.8388 158.402 74.2922 156.747C74.7865 154.959 75.0312 153.111 75.0194 151.256V144.804H74.8667C73.4268 147.093 71.3499 148.909 68.8925 150.027C66.5495 151.05 64.0199 151.573 61.4645 151.563C58.9605 151.582 56.4767 151.113 54.1513 150.181C51.9495 149.304 49.935 148.013 48.216 146.379C46.5102 144.736 45.1553 142.763 44.2336 140.579C43.2527 138.273 42.7574 135.789 42.7786 133.282C42.7574 130.783 43.2259 128.304 44.1575 125.986C45.038 123.792 46.324 121.786 47.9479 120.072C49.5714 118.372 51.5266 117.025 53.6917 116.116C56.0083 115.15 58.4966 114.666 61.0054 114.695C62.1477 114.702 63.2875 114.804 64.4127 115.002C65.6502 115.219 66.8582 115.58 68.0121 116.077C70.7518 117.268 73.1201 119.179 74.8667 121.608H75.0194V115.616H80.0743V151.256C80.057 153.35 79.813 155.436 79.3465 157.477C78.8586 159.684 77.8911 161.756 76.5132 163.545C74.9453 165.518 72.939 167.097 70.6545 168.154C68.1524 169.382 64.8848 169.996 60.8516 169.996C57.5754 170.052 54.321 169.452 51.2791 168.23C48.3689 166.98 45.7583 165.121 43.6218 162.777L47.3738 158.783ZM48.2926 133.129C48.2799 134.96 48.6315 136.774 49.3268 138.467C49.9896 140.091 50.9505 141.576 52.1596 142.845C53.3616 144.102 54.7911 145.119 56.3718 145.841C58.0185 146.591 59.809 146.971 61.6177 146.954C65.1997 146.967 68.6513 145.607 71.2668 143.153C72.5514 141.937 73.5575 140.456 74.2156 138.812C74.9249 137.005 75.251 135.07 75.1731 133.129C75.186 131.309 74.8747 129.501 74.2539 127.791C73.6639 126.165 72.7521 124.676 71.5732 123.413C70.3615 122.132 68.9024 121.113 67.2849 120.417C65.4939 119.654 63.5635 119.274 61.6177 119.303C59.809 119.287 58.0185 119.667 56.3718 120.417C54.7916 121.14 53.3623 122.156 52.1596 123.413C50.9509 124.682 49.9898 126.167 49.3262 127.791C48.6313 129.484 48.2799 131.299 48.2926 133.129Z" fill="#0F9D58"/>
<path d="M39.3095 115.368L25.0582 101.222L39.204 86.9711L53.4553 101.117L39.3095 115.368Z" fill="#4285F4"/>
<path d="M78.0893 109.33L69.7301 101.033L78.0274 92.6737L86.3865 100.971L78.0893 109.33Z" fill="#4285F4"/>
<path d="M39.828 92.5843L31.2616 101.215L39.8917 109.781L47.1929 109.754L39.5365 102.159L77.3428 102.019L74.0293 105.355L77.6799 105.342L81.9634 101.026L77.6481 96.7436L73.9975 96.7568L77.3359 100.069L39.5296 100.209L47.1287 92.5573L39.828 92.5843Z" fill="#7DAEFF"/>
</g>
</svg>
