<svg width="300" height="300" viewBox="0 0 300 300" fill="none" xmlns="http://www.w3.org/2000/svg">
<mask id="mask0_4_146" style="mask-type:luminance" maskUnits="userSpaceOnUse" x="0" y="0" width="256" height="256">
<path d="M256 0H0V256H256V0Z" fill="white"/>
</mask>
<g mask="url(#mask0_4_146)">
<path d="M196 0H60C26.8629 0 0 26.8629 0 60V196C0 229.137 26.8629 256 60 256H196C229.137 256 256 229.137 256 196V60C256 26.8629 229.137 0 196 0Z" fill="#0B5FB2"/>
<path d="M176.482 188.759H198.922C200.616 188.759 201.989 187.386 201.989 185.693L202 138.28C202 113.499 196.66 94.4512 167.701 94.4512C156.692 94.0424 146.311 99.7171 140.709 109.193C140.664 109.268 140.585 109.314 140.497 109.314C140.362 109.314 140.253 109.205 140.253 109.07V99.806C140.253 98.1125 138.88 96.7395 137.186 96.7395H115.89C114.197 96.7395 112.824 98.1125 112.824 99.806V185.688C112.824 187.382 114.197 188.755 115.89 188.755H138.329C140.023 188.755 141.396 187.382 141.396 185.688V143.235C141.396 131.232 143.673 119.607 158.555 119.607C173.225 119.607 173.415 133.342 173.415 144.013V185.692C173.415 187.385 174.788 188.759 176.482 188.759Z" fill="white"/>
<path d="M64 67.5811C64 76.6773 71.4884 84.1613 80.5846 84.1613C89.679 84.1605 97.1622 76.6721 97.1622 67.5776C97.1605 58.4832 89.6764 51 80.5811 51C71.485 51 64 58.485 64 67.5811Z" fill="white"/>
<path d="M69.3352 188.759H91.804C93.4977 188.759 94.8707 187.385 94.8707 185.692V99.806C94.8707 98.1126 93.4977 96.7395 91.804 96.7395H69.3352C67.6416 96.7395 66.2686 98.1126 66.2686 99.806V185.692C66.2686 187.385 67.6416 188.759 69.3352 188.759Z" fill="white"/>
</g>
</svg>
