<svg width="300" height="300" viewBox="0 0 300 300" fill="none" xmlns="http://www.w3.org/2000/svg">
<mask id="mask0_4_196" style="mask-type:luminance" maskUnits="userSpaceOnUse" x="0" y="0" width="256" height="256">
<path d="M256 0H0V256H256V0Z" fill="white"/>
</mask>
<g mask="url(#mask0_4_196)">
<path d="M196 0H60C26.8629 0 0 26.8629 0 60V196C0 229.137 26.8629 256 60 256H196C229.137 256 256 229.137 256 196V60C256 26.8629 229.137 0 196 0Z" fill="url(#paint0_linear_4_196)"/>
<path d="M75.7673 138.213L94.9675 191.357C94.9675 191.357 97.368 196.329 99.9384 196.329C102.509 196.329 140.741 156.556 140.741 156.556L183.256 74.4387L76.4524 124.495L75.7673 138.213Z" fill="#C8DAEA"/>
<path d="M101.225 151.842L97.5392 191.014C97.5392 191.014 95.9964 203.017 107.996 191.014C119.996 179.011 131.482 169.756 131.482 169.756" fill="#A9C6D8"/>
<path d="M76.1139 140.109L36.6184 127.241C36.6184 127.241 31.8983 125.326 33.4181 120.983C33.731 120.088 34.3622 119.326 36.2502 118.016C45.0014 111.917 198.227 56.8434 198.227 56.8434C198.227 56.8434 202.553 55.3855 205.105 56.3552C205.736 56.5506 206.304 56.9101 206.75 57.3971C207.197 57.884 207.506 58.4809 207.647 59.1266C207.922 60.2671 208.038 61.4404 207.989 62.6127C207.977 63.6269 207.854 64.5669 207.761 66.0409C206.828 81.0982 178.901 193.475 178.901 193.475C178.901 193.475 177.23 200.051 171.244 200.276C169.772 200.324 168.307 200.075 166.934 199.544C165.561 199.013 164.309 198.211 163.253 197.185C151.505 187.08 110.901 159.792 101.929 153.791C101.727 153.653 101.556 153.473 101.429 153.264C101.302 153.055 101.221 152.821 101.193 152.577C101.067 151.945 101.755 151.161 101.755 151.161C101.755 151.161 172.457 88.3159 174.339 81.7185C174.484 81.2074 173.934 80.9552 173.195 81.1791C168.499 82.9067 87.0943 134.314 78.1098 139.988C77.4631 140.184 76.7795 140.225 76.1139 140.109Z" fill="white"/>
</g>
<defs>
<linearGradient id="paint0_linear_4_196" x1="128" y1="256" x2="128" y2="0" gradientUnits="userSpaceOnUse">
<stop stop-color="#1D93D2"/>
<stop offset="1" stop-color="#38B0E3"/>
</linearGradient>
</defs>
</svg>
