<svg width="290" height="290" viewBox="0 0 290 290" fill="none" xmlns="http://www.w3.org/2000/svg">
<path d="M196 0H60C26.8629 0 0 26.8629 0 60V196C0 229.137 26.8629 256 60 256H196C229.137 256 256 229.137 256 196V60C256 26.8629 229.137 0 196 0Z" fill="#242938"/>
<path d="M40.5612 102.64C40.5612 102.64 36.2226 99.5122 41.429 95.3362L53.5592 84.4896C53.5592 84.4896 57.0301 80.8379 60.6999 84.0195L172.638 168.768V209.407C172.638 209.407 172.584 215.789 164.394 215.083L40.5612 102.64Z" fill="#2489CA"/>
<path d="M69.4133 128.834L40.5611 155.065C40.5611 155.065 37.5963 157.271 40.5611 161.212L53.9568 173.396C53.9568 173.396 57.1384 176.813 61.8386 172.926L92.4263 149.732L69.4133 128.834Z" fill="#1070B3"/>
<path d="M120.067 129.052L172.981 88.6474L172.638 48.2254C172.638 48.2254 170.378 39.4035 162.839 43.9952L92.4263 108.081L120.067 129.052Z" fill="#0877B9"/>
<path d="M164.394 215.138C167.467 218.283 171.192 217.253 171.192 217.253L212.427 196.934C217.706 193.336 216.964 188.871 216.964 188.871V67.5325C216.964 62.1996 211.504 60.3557 211.504 60.3557L175.765 43.1275C167.956 38.3008 162.839 43.9952 162.839 43.9952C162.839 43.9952 169.419 39.2589 172.638 48.2255V208.665C172.638 209.769 172.402 210.853 171.933 211.83C170.993 213.728 168.95 215.499 164.051 214.758L164.394 215.138Z" fill="#3C99D4"/>
</svg>
